<?xml version="1.0" standalone="no"?>
<!DOCTYPE svg PUBLIC "-//W3C//DTD SVG 20010904//EN"
 "http://www.w3.org/TR/2001/REC-SVG-20010904/DTD/svg10.dtd">
<svg version="1.0" xmlns="http://www.w3.org/2000/svg"
 width="1019.000000pt" height="1280.000000pt" viewBox="0 0 1019.000000 1280.000000"
 preserveAspectRatio="xMidYMid meet">
<metadata>
Created by potrace 1.15, written by Peter Selinger 2001-2017
</metadata>
<g transform="translate(0.000000,1280.000000) scale(0.100000,-0.100000)"
fill="#000000" stroke="none">
<path d="M4180 12774 c-8 -1 -152 -8 -320 -14 -688 -26 -875 -36 -898 -49 -13
-7 -32 -27 -42 -44 -19 -31 -20 -59 -20 -1025 0 -1102 -3 -1044 65 -1076 18
-9 38 -16 44 -16 6 0 30 -6 53 -14 24 -8 104 -33 178 -56 74 -23 146 -45 160
-50 14 -5 93 -30 175 -55 83 -26 175 -55 205 -64 30 -10 80 -26 110 -35 30
-10 161 -51 291 -91 l237 -74 213 30 c118 16 277 38 355 49 77 11 153 20 168
20 15 0 41 8 59 17 21 11 60 17 117 19 47 1 150 11 230 23 80 11 181 26 225
31 136 19 218 31 265 42 25 5 77 11 115 13 39 1 104 7 145 13 101 15 276 39
443 61 132 17 141 20 170 50 l32 31 3 163 c10 652 17 2008 10 2034 -5 18 -20
41 -35 53 -26 20 -30 20 -1382 19 -746 -1 -1363 -3 -1371 -5z"/>
<path d="M1172 9678 l3 -1703 40 0 40 0 5 1655 5 1655 673 3 672 2 0 45 0 45
-720 0 -720 0 2 -1702z"/>
<path d="M7167 11373 c-4 -3 -7 -24 -7 -45 l0 -38 693 -2 692 -3 3 -1652 2
-1653 24 -6 c14 -3 33 -4 43 -2 17 3 18 65 21 1706 l2 1702 -733 0 c-404 0
-737 -3 -740 -7z"/>
<path d="M3072 10162 c-9 -7 -12 -641 -12 -3128 l0 -3119 45 -3 45 -3 0 3124
c0 2840 -1 3125 -16 3131 -21 8 -46 7 -62 -2z"/>
<path d="M6763 10162 c-10 -6 -13 -647 -13 -3128 l0 -3119 45 -3 45 -3 -2
3128 -3 3128 -30 3 c-16 1 -36 -1 -42 -6z"/>
<path d="M4756 10005 c-3 -9 -6 -445 -6 -970 0 -1048 -4 -980 62 -973 l33 3 0
975 0 975 -41 3 c-31 2 -43 -1 -48 -13z"/>
<path d="M16 7787 c-15 -11 -16 -92 -14 -1022 l3 -1010 85 2 c47 1 139 6 205
12 353 30 705 55 709 51 6 -6 -47 -436 -54 -444 -3 -2 -64 -12 -135 -21 -182
-22 -395 -54 -406 -61 -13 -8 -11 -75 4 -104 16 -32 73 -64 172 -96 148 -47
127 -47 480 5 256 38 838 139 870 151 29 11 34 46 7 54 -9 3 -80 24 -157 47
-135 40 -145 42 -299 45 -87 2 -163 7 -167 11 -19 19 -31 218 -20 324 6 57 15
107 19 111 7 7 535 52 898 77 67 4 126 11 133 15 16 10 16 1662 0 1672 -10 6
-301 32 -549 48 -52 4 -291 23 -530 42 -239 19 -496 40 -570 45 -74 6 -184 14
-245 19 -60 5 -177 14 -259 20 -82 6 -152 13 -156 15 -4 2 -15 -1 -24 -8z"/>
<path d="M3667 7789 c-16 -9 -17 -73 -17 -1020 0 -889 2 -1010 15 -1015 8 -4
219 10 468 30 248 20 467 36 485 36 30 0 32 -2 32 -32 -1 -38 -47 -409 -52
-414 -2 -2 -46 -8 -98 -14 -193 -23 -445 -61 -454 -70 -4 -4 -5 -28 -1 -51 12
-71 51 -101 191 -145 127 -40 176 -44 289 -25 33 6 150 24 260 41 192 30 379
61 570 95 50 9 116 20 147 26 83 14 108 25 108 49 0 11 -1 20 -3 20 -2 0 -73
21 -158 46 -152 45 -156 46 -319 49 l-165 3 -11 64 c-23 127 -11 373 20 384 6
2 153 15 326 29 173 14 365 29 426 35 60 5 137 10 170 10 32 0 69 6 82 13 l23
12 0 825 c-1 454 -1 828 -1 832 0 11 -111 21 -565 53 -115 8 -235 17 -265 20
-30 3 -112 9 -182 15 -145 11 -321 25 -500 40 -314 25 -436 35 -642 50 -82 6
-152 12 -155 14 -4 3 -14 0 -24 -5z"/>
<path d="M7376 7788 c-14 -8 -16 -111 -16 -1019 0 -913 2 -1010 16 -1016 9 -3
131 4 272 15 458 38 711 56 716 52 2 -3 1 -27 -4 -55 -4 -27 -13 -95 -20 -150
-18 -159 -32 -245 -39 -245 -4 0 -81 -9 -172 -20 -232 -28 -363 -51 -371 -64
-4 -6 -5 -29 -2 -51 9 -63 54 -97 191 -141 123 -40 182 -45 284 -26 30 6 88
15 129 21 41 7 237 39 435 72 198 33 386 65 417 70 75 12 108 25 108 43 0 23
-18 31 -175 76 -144 41 -156 43 -305 46 -154 3 -155 3 -168 28 -28 54 -24 389
5 416 7 8 101 16 528 51 72 5 177 14 234 19 58 6 130 10 162 10 32 0 69 4 83
10 l26 10 0 834 0 834 -47 6 c-46 6 -337 29 -513 41 -83 5 -461 35 -707 55
-163 13 -336 27 -513 40 -80 6 -184 15 -231 20 -48 6 -115 10 -150 11 -35 0
-85 4 -111 8 -25 4 -54 4 -62 -1z"/>
<path d="M5845 5153 c-38 -7 -133 -24 -210 -38 -77 -13 -192 -33 -255 -45
-141 -25 -328 -58 -395 -69 -27 -5 -88 -16 -135 -24 -47 -9 -166 -30 -265 -47
-99 -18 -254 -45 -345 -61 -357 -63 -397 -70 -448 -79 -64 -11 -66 -12 -82
-50 -10 -25 -10 -33 2 -48 8 -9 46 -55 84 -102 347 -420 365 -441 387 -434 12
3 96 30 187 60 91 29 197 63 235 74 39 12 108 35 155 50 86 29 134 44 455 145
99 31 205 65 235 75 30 10 136 44 235 75 99 31 191 60 205 65 14 5 113 37 220
71 283 89 344 110 353 119 17 16 -5 52 -41 67 -21 8 -55 23 -78 34 -22 10 -65
27 -94 39 -29 12 -72 29 -94 40 -57 25 -164 69 -206 84 -28 10 -49 10 -105 -1z"/>
<path d="M2145 5144 c-44 -8 -114 -20 -155 -28 -41 -8 -131 -24 -200 -36 -69
-12 -197 -34 -285 -50 -88 -16 -266 -47 -395 -70 -129 -22 -323 -57 -430 -76
-107 -18 -249 -43 -315 -54 -66 -12 -138 -25 -160 -30 -22 -5 -58 -12 -81 -15
-31 -5 -44 -13 -58 -36 -20 -34 -18 -41 51 -121 21 -25 119 -142 217 -261 98
-120 180 -217 182 -217 2 0 72 22 156 49 84 27 241 77 348 111 107 34 220 70
250 80 30 10 123 39 205 65 83 26 188 60 235 75 47 16 173 56 280 90 107 33
213 67 235 75 22 7 128 41 235 75 352 112 355 113 358 137 4 28 -19 43 -134
89 -49 20 -102 42 -119 49 -145 66 -275 115 -305 114 -19 0 -71 -7 -115 -15z"/>
<path d="M9445 5134 c-71 -13 -209 -38 -305 -55 -96 -16 -199 -34 -227 -40
-273 -49 -384 -68 -558 -99 -99 -17 -227 -39 -285 -50 -58 -10 -161 -28 -230
-40 -69 -11 -143 -25 -165 -30 -22 -4 -71 -13 -110 -20 -38 -6 -82 -14 -98
-17 -38 -7 -65 -58 -47 -87 7 -12 112 -139 232 -284 192 -230 222 -262 241
-256 12 4 96 30 187 59 91 29 253 81 360 115 107 34 227 73 265 85 39 12 131
42 205 65 74 24 173 55 220 71 47 15 173 55 280 89 107 33 213 67 235 75 22 7
128 41 235 75 107 34 216 69 242 77 26 8 49 21 52 30 8 21 -10 50 -36 59 -13
4 -46 17 -73 30 -28 12 -75 32 -104 44 -30 11 -73 29 -95 40 -130 59 -219 90
-253 89 -21 0 -96 -12 -168 -25z"/>
<path d="M1957 3626 c-4 -10 -7 -465 -7 -1011 0 -892 2 -995 16 -1009 8 -9 19
-14 23 -11 5 2 75 9 157 15 82 6 174 13 204 15 295 26 583 46 593 42 15 -6 16
1 -32 -375 -8 -70 -18 -82 -72 -82 -30 0 -252 -29 -434 -57 -55 -9 -63 -23
-50 -89 8 -45 52 -77 156 -113 158 -55 168 -56 324 -32 359 55 967 157 1053
176 15 4 22 13 22 28 0 21 -14 27 -162 72 -160 48 -166 49 -324 53 l-162 4 -5
47 c-16 128 -18 195 -8 286 7 54 17 102 23 106 11 7 75 14 218 24 41 3 161 12
265 20 105 8 255 20 335 26 80 6 161 14 180 18 l35 7 3 829 c1 456 -1 832 -6
837 -6 6 -726 67 -1097 93 -75 5 -879 69 -1010 80 -222 19 -232 19 -238 1z"/>
<path d="M5647 3626 c-4 -10 -7 -465 -7 -1011 0 -892 2 -995 16 -1009 8 -9 19
-14 24 -11 5 3 73 10 152 15 78 5 168 12 198 15 292 26 603 46 610 39 4 -5 5
-34 0 -64 -4 -30 -13 -98 -20 -150 -6 -52 -16 -125 -22 -163 -11 -77 3 -70
-163 -87 -60 -7 -153 -18 -205 -26 -52 -8 -116 -17 -142 -21 -56 -7 -64 -22
-48 -82 17 -66 71 -97 260 -152 69 -20 82 -21 155 -10 252 37 1049 169 1123
186 15 4 22 13 22 29 0 18 -8 25 -42 35 -99 28 -186 55 -228 69 -37 12 -210
23 -366 22 -31 0 -43 317 -16 415 10 36 -42 29 606 80 315 25 431 37 437 47 5
7 9 380 9 829 0 695 -2 818 -14 828 -8 7 -41 14 -73 17 -32 2 -141 11 -243 19
-266 21 -628 49 -770 60 -41 3 -302 24 -580 46 -731 58 -666 55 -673 35z"/>
<path d="M4140 1000 c-25 -4 -99 -18 -165 -30 -66 -11 -142 -25 -170 -30 -27
-5 -102 -18 -165 -29 -63 -11 -167 -29 -230 -41 -63 -11 -180 -32 -260 -46
-80 -14 -246 -43 -370 -65 -124 -22 -274 -49 -335 -59 -96 -17 -272 -49 -373
-67 -34 -6 -78 -54 -69 -76 3 -7 96 -122 208 -257 112 -135 214 -258 225 -273
23 -28 42 -33 72 -18 9 5 98 35 197 66 99 31 248 78 330 105 83 26 231 73 330
105 99 31 205 65 235 75 30 10 129 42 220 70 91 28 190 60 220 70 30 10 136
44 235 75 99 31 218 69 265 85 47 15 118 38 158 50 61 19 72 26 72 45 0 12 -6
27 -12 33 -12 9 -344 152 -354 152 -2 0 -34 14 -71 31 -75 35 -124 42 -193 29z"/>
<path d="M7765 989 c-132 -24 -186 -34 -330 -59 -66 -11 -142 -25 -170 -30
-76 -14 -218 -39 -340 -60 -133 -23 -630 -111 -822 -146 -49 -8 -110 -19 -138
-24 -27 -5 -88 -16 -135 -24 -47 -9 -90 -16 -95 -16 -6 0 -19 -16 -29 -35 -16
-30 -17 -37 -5 -52 16 -20 342 -415 398 -481 20 -24 38 -48 39 -53 5 -12 38
-12 60 1 9 5 55 21 102 35 47 15 135 42 195 61 61 20 151 48 200 64 50 15 205
65 345 110 140 45 341 108 445 142 105 33 228 73 275 88 47 16 135 44 195 63
61 19 197 63 303 97 252 80 257 92 82 166 -58 24 -115 49 -127 54 -203 89
-286 120 -315 119 -18 -1 -78 -10 -133 -20z"/>
</g>
</svg>
